<svg width="200pt" height="256" viewBox="0 0 200 192" xmlns="http://www.w3.org/2000/svg"><g fill="#54dc82">
	<path d="M.86.17c16.75.35 33.27 4.3 49.09 9.65a155.75 155.75 0 0150.07 28.28 49.13 49.13 0 00-7.53 7.17C69.75 25.55 40.27 15.15 10.86 10.58c-3.26-.55-6.56-.74-9.85-.95C.85 6.48.85 3.33.86.17zM.53 40.13c20.16 1.25 40.35 6.37 57.89 16.57 5.94 3.3 11.12 7.7 16.56 11.71a52.43 52.43 0 00-4.99 9.31C51.13 60.37 25.69 51.98.53 49.73a1536 1536 0 010-9.6zM99.78 52.31c2.55-2.28 5.04-4.63 7.51-7.01 6.68 7.01 12.06 15.05 17.52 22.99a37.83 37.83 0 00-7.41 7.49c-4.68-8.61-10.39-16.8-17.62-23.47zM82.28 75.63c2.78 4.86 6.66 8.99 9.28 13.95 3.34 5.72 5.54 11.99 8.29 18-2.16 6.28-3.82 12.81-3.89 19.49-.22 1.47-1.16 2.65-1.91 3.88a82.06 82.06 0 00-16.74-44.94c1.73-3.42 3.4-6.88 4.97-10.38zM.57 76.31c14.89 1.63 29.85 5.95 42.01 14.96a60.97 60.97 0 0115.74 17.43c.87 1.22.87 2.79.78 4.23-2.03 9.76-3 19.75-2.18 29.71 2.8.05 5.6-.14 8.34-.78l.5.89c-3.05.07-6.1.09-9.15.2.63-15.9-5.43-32.52-18.08-42.6C27.86 91.45 14.1 87.48.52 85.86c0-3.19 0-6.37.05-9.55zM122.1 86.08c2.57-2.69 5-5.51 7.5-8.26 2.33 6.26 5.11 12.36 6.89 18.81 1.31 4.62 2.25 9.34 3.56 13.97-3.8 6.52-5.58 13.96-6.7 21.35-.34-2.36-.65-4.72-1.16-7.05-1.9-13.22-3.92-26.81-10.09-38.82z"/></g>
	<g fill="#00c432">
	<path d="M180.05 1.99c6.22-.76 12.41-2.04 18.72-1.87.02 3.17 0 6.34-.08 9.51-15.21.96-30.15 4.61-44.55 9.48-16.95 5.92-33.31 14.27-46.85 26.19a275.53 275.53 0 01-7.51 7.01 99.47 99.47 0 00-17.5 23.32c-1.57 3.5-3.24 6.96-4.97 10.38-6.03 12.84-8.65 26.97-10.34 40.96-.62 5.4.1 10.9-.95 16.25l-.26-.47-.5-.89a33.9 33.9 0 01-8.34.78c-.82-9.96.15-19.95 2.18-29.71 2.35-12.09 5.78-23.98 10.89-35.21a52.43 52.43 0 014.99-9.31c5-8.31 10.85-16.09 17.51-23.14a49.13 49.13 0 017.53-7.17c22.43-19.55 50.97-30.91 80.03-36.11z"/>
	<path d="M124.81 68.29c20.26-17.94 47.27-26.51 73.92-28.21.05 3.21.04 6.41 0 9.62-24.96 2.45-50.72 10.37-69.13 28.12-2.5 2.75-4.93 5.57-7.5 8.26-12.73 15.83-17.79 36.72-17.55 56.73-3.24.01-6.48.02-9.72.06-.11-3.71-.14-7.43-.13-11.14 1.24-1.23 1.17-3.04 1.26-4.66.07-6.68 1.73-13.21 3.89-19.49a95.98 95.98 0 0117.55-31.8 37.83 37.83 0 017.41-7.49z"/>
	<path d="M140.05 110.6c11.55-21.43 35.99-32.51 59.46-34.11.01 3.16-.03 6.32-.14 9.48-15.46 1.53-31.24 6.72-42.39 17.98-10.14 10.13-14.54 24.77-14.45 38.85-3.23.03-6.46.03-9.69.02.22-5.99-.58-11.95-.65-17.92.51 2.33.82 4.69 1.16 7.05 1.12-7.39 2.9-14.83 6.7-21.35z"/></g>
	<g fill="#004503">
	<path d="M6.75 156.7c6.47-5.73 16.77-5.77 23.56-.53-.82 1.22-1.66 2.44-2.5 3.66-3.93-2.08-8.58-4.07-13-2.18-10.88 3.46-11.89 19.59-4.22 26.73 4.94 4.2 12.4 3.31 17.44-.29l2.99 3.17a18.32 18.32 0 01-13.96 4.47c-7.02.12-13.15-5.12-15.24-11.63-2.55-7.86-1.5-17.64 4.93-23.4zM142.02 153.33c5.18-2.11 10.87-.82 15.71 1.54l-1.58 3.86c-4.04-1.96-9.18-3.56-13.3-.96-2.92 1.49-3.31 6.21-.59 8.08 4.43 3.55 10.35 4.61 14.67 8.33 3.12 2.6 2.82 7.29 1.85 10.84a11.16 11.16 0 01-8.83 6.51c-5.75.87-11.8-.25-16.69-3.45l2.21-3.91c4.76 2.63 10.76 4.77 15.99 2.22 3.11-1.44 4.58-6.25 1.6-8.57-4.66-3.61-11.03-4.39-15.29-8.59-4.76-4.74-2.37-14.23 4.25-15.9zM177.44 152.62c5.92-1.09 12.64.68 16.63 5.37 3.53 4.1 4.98 9.65 4.64 15-.02 7.03-3.55 14.54-10.27 17.45-7.26 2.85-16.92 1.54-21.61-5.22-5.65-8.19-5.46-20.54 1.42-27.98a16.57 16.57 0 019.19-4.62m-1.11 4.89c-9.01 3.55-10.34 15.84-6.21 23.54 3.36 6.9 13.63 8.45 19.07 3.17 4.76-4.61 5.27-12.04 3.74-18.14-1.88-6.86-9.84-11.46-16.6-8.57zM47.01 152.75l4.24-.19a227.57 227.57 0 0114.62 38.79c-1.57.04-3.12-.11-4.64-.44-1.42-3.26-2.25-6.74-3.41-10.09-5.67-.27-11.36-.14-17.03-.09-1.42 3.43-2.48 6.98-3.6 10.5h-4.7a209.6 209.6 0 0114.52-38.48m-4.86 23.46c4.67 0 9.33.01 14-.02a122.83 122.83 0 00-6.86-17.4c-3.35 5.35-4.96 11.54-7.14 17.42zM69.81 153.11l4.83.04c.03 11.22-.02 22.43.1 33.64 5.37-.12 10.73-.05 16.09-.03l-.02 4.43c-7 .07-14 .04-21 .04v-38.12zM94.41 153.13l5.13.02c-.13 12.7.14 25.4-.14 38.1l-4.86.02c-.27-12.71-.02-25.43-.13-38.14zM106.92 153.12c5.35.14 10.73-.33 16.05.28 9.54 2.16 10.21 17.21 2.01 21.49-3.99 2.17-8.7 1.25-13.04 1.38-.12 4.97-.04 9.95-.13 14.92l-4.89.05v-38.12m4.95 3.76l.01 15.48c3.26-.06 6.66.36 9.8-.76 4.44-2.42 5.21-9.4 1.64-12.89-3.19-2.71-7.62-1.73-11.45-1.83z"/>
	</g>
</svg>